<svg width="1200" height="630" viewBox="0 0 1200 630" fill="none" xmlns="http://www.w3.org/2000/svg">
  <rect width="1200" height="630" rx="36" fill="#F3EEE6"/>
  <circle cx="1020" cy="102" r="168" fill="#E6D3BF"/>
  <circle cx="180" cy="530" r="170" fill="#D4E3E7"/>
  <rect x="58" y="58" width="1084" height="514" rx="40" fill="url(#paint0_linear)" stroke="#D0C7BB"/>
  <rect x="94" y="96" width="470" height="438" rx="32" fill="#15120F"/>
  <text x="136" y="166" fill="#F6EFE6" font-family="Georgia, serif" font-size="36" letter-spacing="6">
    AUGUSTO SANTANA
  </text>
  <text x="136" y="252" fill="#F4C48F" font-family="Georgia, serif" font-size="92" font-weight="700">
    Portfolio
  </text>
  <text x="136" y="338" fill="#F6EFE6" font-family="Georgia, serif" font-size="92" font-weight="700">
    web premium
  </text>
  <text x="136" y="424" fill="#BFAE9A" font-family="Arial, sans-serif" font-size="28">
    Direcao visual, projetos sob medida e experiencia digital
  </text>
  <text x="136" y="466" fill="#BFAE9A" font-family="Arial, sans-serif" font-size="28">
    pensada para empresas que precisam impressionar rapido.
  </text>
  <rect x="658" y="114" width="418" height="180" rx="30" fill="#FBF8F4" fill-opacity=".72"/>
  <rect x="694" y="150" width="192" height="18" rx="9" fill="#B47F4B"/>
  <rect x="694" y="184" width="286" height="84" rx="24" fill="#FFFFFF" fill-opacity=".82"/>
  <rect x="658" y="322" width="198" height="174" rx="30" fill="#15120F"/>
  <rect x="884" y="322" width="192" height="174" rx="30" fill="#FBF8F4" fill-opacity=".78"/>
  <text x="692" y="538" fill="#6B6258" font-family="Arial, sans-serif" font-size="22" letter-spacing="4">
    REACT / DESIGN / EXECUCAO COMPLETA
  </text>
  <defs>
    <linearGradient id="paint0_linear" x1="100" y1="98" x2="1062" y2="548" gradientUnits="userSpaceOnUse">
      <stop stop-color="#FFFDF9" stop-opacity=".88"/>
      <stop offset="1" stop-color="#F0E8DE" stop-opacity=".94"/>
    </linearGradient>
  </defs>
</svg>
