<svg xmlns="http://www.w3.org/2000/svg" viewBox="0 0 64 64" role="img" aria-label="Rare Candy Market">
  <defs>
    <linearGradient id="bg" x1="0%" x2="100%" y1="0%" y2="100%">
      <stop offset="0%" stop-color="#ffd34d" />
      <stop offset="100%" stop-color="#52f0ff" />
    </linearGradient>
  </defs>
  <rect width="64" height="64" rx="18" fill="#071221" />
  <rect x="10" y="10" width="44" height="44" rx="14" fill="url(#bg)" opacity="0.16" />
  <path
    d="M20 24c0-2.2 1.8-4 4-4h16c2.2 0 4 1.8 4 4v16c0 2.2-1.8 4-4 4H24c-2.2 0-4-1.8-4-4V24Z"
    fill="none"
    stroke="url(#bg)"
    stroke-width="3"
  />
  <path
    d="M31.8 23.2l1.9 4.8 5.2.3-4 3.3 1.3 5-4.4-2.9-4.4 2.9 1.3-5-4-3.3 5.2-.3 1.9-4.8Z"
    fill="#ffd34d"
  />
</svg>
